HIERARCHY
ROOT Hips
{
  OFFSET 5.72205e-005 65.662 3.42586
  CHANNELS 6 Xposition Yposition Zposition Zrotation Xrotation Yrotation
  JOINT Chest
  {
    OFFSET 0 8.7983 -4.7612
    CHANNELS 3 Zrotation Xrotation Yrotation
    JOINT Chest2
    {
      OFFSET 0 8.0291 0.4195
      CHANNELS 3 Zrotation Xrotation Yrotation
      JOINT Chest3
      {
        OFFSET 0 9.9351 -2.2114
        CHANNELS 3 Zrotation Xrotation Yrotation
        JOINT Neck
        {
          OFFSET 0 22.3885 -0.4656
          CHANNELS 3 Zrotation Xrotation Yrotation
          JOINT Head
          {
            OFFSET -0.0001 12.643 3.4389
            CHANNELS 3 Zrotation Xrotation Yrotation
            End Site
            {
              OFFSET 0.0001 17.6655 0.5274
            }
          }
        }
        JOINT LeftCollar
        {
          OFFSET 2.2603 21.606 7.4023
          CHANNELS 3 Zrotation Xrotation Yrotation
          JOINT LeftShoulder
          {
            OFFSET 13.5163 -1.1332 -5.0146
            CHANNELS 3 Zrotation Xrotation Yrotation
            JOINT LeftElbow
            {
              OFFSET -0.0995 -28.05 -0.2431
              CHANNELS 3 Zrotation Xrotation Yrotation
              JOINT LeftWrist
              {
                OFFSET 0.0679 -23.3996 -0.1402
                CHANNELS 3 Zrotation Xrotation Yrotation
                JOINT LeftFinger1
                {
                  OFFSET 0.7932 -9.069 2.5189
                  CHANNELS 3 Zrotation Xrotation Yrotation
                  JOINT LeftFinger11
                  {
                    OFFSET -0.8272 -3.3923 0.5977
                    CHANNELS 3 Zrotation Xrotation Yrotation
                    JOINT LeftFinger12
                    {
                      OFFSET -0.5649 -2.3158 0.4082
                      CHANNELS 3 Zrotation Xrotation Yrotation
                      End Site
                      {
                        OFFSET -0.4919 -1.6479 0.2673
                      }
                    }
                  }
                }
                JOINT LeftFinger2
                {
                  OFFSET 0.9159 -9.2044 0.2193
                  CHANNELS 3 Zrotation Xrotation Yrotation
                  JOINT LeftFinger21
                  {
                    OFFSET 0.0117 -4.1944 -0.0248
                    CHANNELS 3 Zrotation Xrotation Yrotation
                    JOINT LeftFinger22
                    {
                      OFFSET 0.0071 -2.3249 -0.0142
                      CHANNELS 3 Zrotation Xrotation Yrotation
                      End Site
                      {
                        OFFSET -0.1475 -2.0882 0.0028
                      }
                    }
                  }
                }
                JOINT LeftFinger3
                {
                  OFFSET 0.6113 -8.7231 -2.0637
                  CHANNELS 3 Zrotation Xrotation Yrotation
                  JOINT LeftFinger31
                  {
                    OFFSET -0.1927 -3.8059 -0.2383
                    CHANNELS 3 Zrotation Xrotation Yrotation
                    JOINT LeftFinger32
                    {
                      OFFSET -0.1091 -2.1688 -0.1362
                      CHANNELS 3 Zrotation Xrotation Yrotation
                      End Site
                      {
                        OFFSET -0.2358 -1.9176 -0.0906
                      }
                    }
                  }
                }
                JOINT LeftFinger4
                {
                  OFFSET -0.6151 -8.0947 -3.5641
                  CHANNELS 3 Zrotation Xrotation Yrotation
                  JOINT LeftFinger41
                  {
                    OFFSET -0.4882 -2.341 -0.6462
                    CHANNELS 3 Zrotation Xrotation Yrotation
                    JOINT LeftFinger42
                    {
                      OFFSET -0.3575 -1.7167 -0.4742
                      CHANNELS 3 Zrotation Xrotation Yrotation
                      End Site
                      {
                        OFFSET -0.4187 -1.5237 -0.3496
                      }
                    }
                  }
                }
                JOINT LeftFinger0
                {
                  OFFSET -1.42 -1.8761 1.4223
                  CHANNELS 3 Zrotation Xrotation Yrotation
                  JOINT LeftFinger01
                  {
                    OFFSET -1.1471 -3.4929 2.6334
                    CHANNELS 3 Zrotation Xrotation Yrotation
                    JOINT LeftFinger02
                    {
                      OFFSET -0.823 -2.3 1.6571
                      CHANNELS 3 Zrotation Xrotation Yrotation
                      End Site
                      {
                        OFFSET -0.5822 -1.6914 1.1582
                      }
                    }
                  }
                }
              }
            }
          }
        }
        JOINT RightCollar
        {
          OFFSET -2.2603 21.606 7.4023
          CHANNELS 3 Zrotation Xrotation Yrotation
          JOINT RightShoulder
          {
            OFFSET -13.5187 -1.1334 -5.0155
            CHANNELS 3 Zrotation Xrotation Yrotation
            JOINT RightElbow
            {
              OFFSET 0.0994 -28.0499 -0.2431
              CHANNELS 3 Zrotation Xrotation Yrotation
              JOINT RightWrist
              {
                OFFSET -0.0679 -23.3996 -0.1402
                CHANNELS 3 Zrotation Xrotation Yrotation
                JOINT RightFinger1
                {
                  OFFSET -0.7932 -9.0691 2.5189
                  CHANNELS 3 Zrotation Xrotation Yrotation
                  JOINT RightFinger11
                  {
                    OFFSET 0.8272 -3.3923 0.5977
                    CHANNELS 3 Zrotation Xrotation Yrotation
                    JOINT RightFinger12
                    {
                      OFFSET 0.565 -2.3158 0.4082
                      CHANNELS 3 Zrotation Xrotation Yrotation
                      End Site
                      {
                        OFFSET 0.4919 -1.6479 0.2673
                      }
                    }
                  }
                }
                JOINT RightFinger2
                {
                  OFFSET -0.916 -9.2044 0.2193
                  CHANNELS 3 Zrotation Xrotation Yrotation
                  JOINT RightFinger21
                  {
                    OFFSET -0.0117 -4.1944 -0.0248
                    CHANNELS 3 Zrotation Xrotation Yrotation
                    JOINT RightFinger22
                    {
                      OFFSET -0.0071 -2.3249 -0.0142
                      CHANNELS 3 Zrotation Xrotation Yrotation
                      End Site
                      {
                        OFFSET 0.1475 -2.0882 0.0028
                      }
                    }
                  }
                }
                JOINT RightFinger3
                {
                  OFFSET -0.6113 -8.7231 -2.0637
                  CHANNELS 3 Zrotation Xrotation Yrotation
                  JOINT RightFinger31
                  {
                    OFFSET 0.1927 -3.8059 -0.2383
                    CHANNELS 3 Zrotation Xrotation Yrotation
                    JOINT RightFinger32
                    {
                      OFFSET 0.1091 -2.1688 -0.1362
                      CHANNELS 3 Zrotation Xrotation Yrotation
                      End Site
                      {
                        OFFSET 0.2358 -1.9176 -0.0906
                      }
                    }
                  }
                }
                JOINT RightFinger4
                {
                  OFFSET 0.6151 -8.0947 -3.564
                  CHANNELS 3 Zrotation Xrotation Yrotation
                  JOINT RightFinger41
                  {
                    OFFSET 0.4882 -2.341 -0.6462
                    CHANNELS 3 Zrotation Xrotation Yrotation
                    JOINT RightFinger42
                    {
                      OFFSET 0.3574 -1.7166 -0.4742
                      CHANNELS 3 Zrotation Xrotation Yrotation
                      End Site
                      {
                        OFFSET 0.4187 -1.5237 -0.3496
                      }
                    }
                  }
                }
                JOINT RightFinger0
                {
                  OFFSET 1.4199 -1.8761 1.4221
                  CHANNELS 3 Zrotation Xrotation Yrotation
                  JOINT RightFinger01
                  {
                    OFFSET 1.1472 -3.4929 2.6336
                    CHANNELS 3 Zrotation Xrotation Yrotation
                    JOINT RightFinger02
                    {
                      OFFSET 0.8229 -2.3 1.6571
                      CHANNELS 3 Zrotation Xrotation Yrotation
                      End Site
                      {
                        OFFSET 0.5822 -1.6914 1.1582
                      }
                    }
                  }
                }
              }
            }
          }
        }
      }
    }
  }
  JOINT RightHip
  {
    OFFSET -9.412 3.9771 -0.7758
    CHANNELS 3 Zrotation Xrotation Yrotation
    JOINT RightKnee
    {
      OFFSET -0.7531 -40.938 0
      CHANNELS 3 Zrotation Xrotation Yrotation
      JOINT RightAnkle
      {
        OFFSET 0 -40.1986 0
        CHANNELS 3 Zrotation Xrotation Yrotation
        JOINT RightToe
        {
          OFFSET 0 -4.4182 9.239
          CHANNELS 3 Zrotation Xrotation Yrotation
          End Site
          {
            OFFSET 0 0 6.1981
          }
        }
      }
    }
  }
  JOINT LeftHip
  {
    OFFSET 9.4119 3.9773 -0.7758
    CHANNELS 3 Zrotation Xrotation Yrotation
    JOINT LeftKnee
    {
      OFFSET 0.7532 -40.9383 0
      CHANNELS 3 Zrotation Xrotation Yrotation
      JOINT LeftAnkle
      {
        OFFSET 0 -40.1986 0
        CHANNELS 3 Zrotation Xrotation Yrotation
        JOINT LeftToe
        {
          OFFSET 0 -4.4182 9.239
          CHANNELS 3 Zrotation Xrotation Yrotation
          End Site
          {
            OFFSET 0 0 6.1981
          }
        }
      }
    }
  }
}
MOTION
Frames:	6
Frame Time:	0.0333333
-0.381799 -4.74946 56.9399 -90.3963 -89.7304 89.3514 0.164449 -5.5325 0.0502356 0.336166 -11.0648 0.117339 0.336168 -11.0649 0.11734 7.92112e-007 -7.90165 1.05467e-007 2.50041e-007 21.0655 -3.99872e-008 6.34971 -38.0621 2.57446 38.2811 -30.4485 19.333 -148.672 -62.6099 168.278 -26.2609 20.2043 68.6999 -3.18055e-015 1.98785e-016 -1.68967e-015 -3.48141e-006 -5.65741e-007 1.52552e-006 3.48141e-006 5.65741e-007 -1.52552e-006 -3.18055e-015 1.98785e-016 -1.68967e-015 -0.0128088 0.00233406 8.43305e-005 1.38032e-006 -8.96714e-006 -6.0054e-006 -3.18055e-015 1.98785e-016 -1.68967e-015 -0.0160445 0.00300162 0.000858482 -3.48139e-006 -5.56731e-007 1.52533e-006 -3.18055e-015 1.98785e-016 -1.68967e-015 -0.0125881 0.00311755 0.00282664 1.84511e-006 4.53251e-007 -1.55292e-006 -3.18055e-015 1.98785e-016 -1.68967e-015 -3.48141e-006 -5.65741e-007 1.52552e-006 3.48141e-006 5.65741e-007 -1.52552e-006 -14.9429 -3.27784 -36.0505 -29.1166 -39.1248 -4.50572 145.552 -42.192 130.12 -34.5886 23.5724 -21.1448 2.20695e-032 3.18055e-015 -3.97569e-016 -7.95139e-016 3.18055e-015 -1.19271e-015 -1.59028e-015 3.18055e-015 -3.37934e-015 2.20695e-032 3.18055e-015 -3.97569e-016 0.0129666 0.00232039 -9.06587e-005 -8.74653e-015 6.36111e-015 2.26615e-014 2.20695e-032 3.18055e-015 -3.97569e-016 0.0163407 0.00304831 -0.00087318 -7.95139e-016 -3.18055e-015 -1.59028e-015 2.20695e-032 3.18055e-015 -3.97569e-016 0.0145721 0.00368341 -0.00327109 7.95139e-016 0 2.5842e-015 2.20695e-032 3.18055e-015 -3.97569e-016 -7.95139e-016 3.18055e-015 -1.19271e-015 -1.59028e-015 3.18055e-015 -3.37934e-015 -2.45817 1.73423 -4.79404 -169.53 64.9541 165.727 -6.11401 11.7815 -0.0544883 3.97569e-016 0 1.78906e-015 5.06714 -2.18874 2.61696 47.6403 85.5538 -46.647 10.4131 36.7968 1.57636 -7.95139e-016 -9.54166e-015 1.59028e-015 
-0.381799 -4.74946 56.9399 -90.3963 -89.7304 89.3514 0.164994 -5.35536 0.0495712 0.336888 -10.7105 0.115473 0.336889 -10.7105 0.115473 6.52847e-007 -5.07229 9.34594e-008 -2.04558e-007 19.8222 -3.43014e-008 7.02472 -38.8378 3.00563 38.2812 -30.4485 19.333 -148.672 -62.6098 168.278 -26.0359 20.278 69.0493 -3.89319e-006 -1.45169e-006 4.69289e-006 4.14798e-007 1.0038e-006 -3.16234e-006 -3.18055e-015 -2.98177e-016 -1.88845e-015 -3.89319e-006 -1.45169e-006 4.69289e-006 -0.0128467 0.00232675 7.69534e-005 -3.18055e-015 -2.38542e-015 -5.61567e-015 -3.89319e-006 -1.45169e-006 4.69289e-006 -0.016068 0.0030077 0.000862214 -6.36111e-015 -1.39149e-015 -1.49089e-015 -3.89319e-006 -1.45169e-006 4.69289e-006 -0.0125963 0.00312828 0.00281396 3.18055e-015 7.95139e-016 1.98785e-015 -3.89319e-006 -1.45169e-006 4.69289e-006 4.14798e-007 1.0038e-006 -3.16234e-006 -3.18055e-015 -2.98177e-016 -1.88845e-015 -15.2912 -4.25208 -36.2872 -29.1166 -39.1248 -4.50579 145.552 -42.192 130.12 -34.7172 23.8161 -21.3467 3.60259e-006 7.03466e-006 -4.15593e-006 -1.91395e-006 -3.12404e-008 -2.36498e-006 1.91395e-006 3.12405e-008 2.36498e-006 3.60259e-006 7.03466e-006 -4.15593e-006 0.0129719 0.00231213 -9.0367e-005 5.54341e-006 9.38165e-006 8.6227e-007 3.60259e-006 7.03466e-006 -4.15593e-006 0.0163283 0.00303341 -0.000887702 1.65174e-006 -1.18144e-009 3.16422e-006 3.60259e-006 7.03466e-006 -4.15593e-006 0.0145727 0.00367706 -0.00326516 2.61954e-007 8.53053e-006 -7.99132e-007 3.60259e-006 7.03466e-006 -4.15593e-006 -1.91395e-006 -3.12404e-008 -2.36498e-006 1.91395e-006 3.12405e-008 2.36498e-006 -2.45818 1.73416 -4.79404 -169.53 64.9541 165.728 -6.11401 11.7815 -0.0544881 3.329e-007 2.85974e-008 2.62773e-007 5.06714 -2.18874 2.61696 47.6403 85.5538 -46.647 10.4131 36.7968 1.57636 -7.95139e-016 -9.54166e-015 1.59028e-015 
-0.381799 -4.74946 56.9399 -90.3833 -89.7304 89.3644 0.165523 -5.17776 0.0489066 0.337587 -10.3551 0.113603 0.337587 -10.3552 0.113604 1.14354e-006 -2.22934 3.71628e-007 -7.02322e-008 18.5778 -9.39135e-008 7.71513 -39.61 3.45365 38.2812 -30.4485 19.333 -148.672 -62.6098 168.278 -25.8113 20.353 69.3984 7.28196e-008 8.44598e-006 7.61258e-006 3.18055e-015 3.97569e-016 2.5842e-015 3.18055e-015 -1.98785e-016 -9.93923e-016 7.28196e-008 8.44598e-006 7.61258e-006 -0.0128201 0.0023191 8.28293e-005 6.36111e-015 6.95746e-016 -7.45443e-016 7.28196e-008 8.44598e-006 7.61258e-006 -0.0160549 0.00299014 0.00084928 5.78463e-032 -1.09332e-015 3.03147e-015 7.28196e-008 8.44598e-006 7.61258e-006 -0.0125972 0.00311393 0.00282469 -3.18055e-015 2.5842e-015 2.23633e-015 7.28196e-008 8.44598e-006 7.61258e-006 3.18055e-015 3.97569e-016 2.5842e-015 3.18055e-015 -1.98785e-016 -9.93923e-016 -15.6443 -5.22552 -36.5303 -29.1166 -39.1248 -4.50573 145.552 -42.192 130.12 -34.8452 24.0603 -21.5483 -7.95139e-016 3.18055e-015 -1.19271e-015 0 0 -1.19271e-015 1.43452e-031 3.18055e-015 -2.5842e-015 -7.95139e-016 3.18055e-015 -1.19271e-015 0.012974 0.00232354 -8.42242e-005 -7.95139e-016 -3.18055e-015 3.37934e-015 -7.95139e-016 3.18055e-015 -1.19271e-015 0.0163397 0.00304185 -0.000885552 6.62086e-032 6.36111e-015 -5.96354e-016 -7.95139e-016 3.18055e-015 -1.19271e-015 0.0145942 0.0036841 -0.00327376 1.59028e-015 3.18055e-015 -1.19271e-015 -7.95139e-016 3.18055e-015 -1.19271e-015 0 0 -1.19271e-015 1.43452e-031 3.18055e-015 -2.5842e-015 -2.45818 1.73415 -4.79403 -169.53 64.954 165.728 -6.114 11.7815 -0.0544874 5.98542e-007 6.90984e-008 -7.10769e-008 5.06715 -2.18878 2.61696 47.6411 85.5539 -46.6478 10.4131 36.7968 1.57635 -1.63485e-006 -2.68088e-006 9.82835e-007 
-0.381799 -4.74946 56.9399 -90.3963 -89.7304 89.3514 0.166037 -4.9996 0.0482411 0.338261 -9.99906 0.111733 0.338262 -9.99907 0.111733 1.0821e-007 0.623796 -2.09156e-008 -3.65808e-008 17.3325 1.03189e-007 8.42155 -40.378 3.91911 38.2811 -30.4485 19.333 -148.672 -62.6098 168.278 -25.587 20.4292 69.7475 -2.85646e-006 -9.83585e-006 -3.20719e-006 -3.67729e-006 9.81073e-006 3.12324e-006 -9.54166e-015 0 7.50412e-015 -2.85646e-006 -9.83585e-006 -3.20719e-006 -0.0128041 0.00232517 9.08743e-005 3.18055e-015 -9.93923e-016 -1.963e-015 -2.85646e-006 -9.83585e-006 -3.20719e-006 -0.016079 0.00300797 0.000861728 -6.36111e-015 2.98177e-016 -4.02539e-015 -2.85646e-006 -9.83585e-006 -3.20719e-006 -0.0126325 0.00313846 0.00283611 -6.36111e-015 -1.25234e-014 -1.98785e-015 -2.85646e-006 -9.83585e-006 -3.20719e-006 -3.67729e-006 9.81073e-006 3.12324e-006 -9.54166e-015 0 7.50412e-015 -16.0024 -6.19785 -36.7799 -29.1166 -39.1248 -4.50571 145.552 -42.192 130.12 -34.9725 24.305 -21.7497 7.95139e-016 -6.36111e-015 4.17448e-015 1.59028e-015 -3.18055e-015 -0 1.59028e-015 -6.36111e-015 1.39149e-015 7.95139e-016 -6.36111e-015 4.17448e-015 0.0129546 0.00230611 -8.19631e-005 7.95139e-016 -3.18055e-015 -9.93923e-016 7.95139e-016 -6.36111e-015 4.17448e-015 0.0163443 0.00303542 -0.000873367 4.41391e-032 -3.18055e-015 7.95139e-016 7.95139e-016 -6.36111e-015 4.17448e-015 0.0145706 0.00367459 -0.00326129 -2.38542e-015 -3.18055e-015 3.18055e-015 7.95139e-016 -6.36111e-015 4.17448e-015 1.59028e-015 -3.18055e-015 -0 1.59028e-015 -6.36111e-015 1.39149e-015 -2.45817 1.73418 -4.79404 -169.53 64.9541 165.728 -6.11401 11.7815 -0.0544895 4.65721e-007 2.85974e-008 9.58478e-008 5.06714 -2.18874 2.61696 47.6403 85.5538 -46.647 10.4131 36.7968 1.57636 -7.95139e-016 0 -1.59028e-015 
-0.381799 -4.74946 56.9399 -90.3963 -89.7304 89.3514 0.166533 -4.82133 0.047577 0.33891 -9.64245 0.109862 0.338911 -9.64248 0.109863 2.09515e-007 3.48357 -6.29329e-008 2.19608e-009 16.0867 2.59883e-008 9.14459 -41.1418 4.40262 38.2811 -30.4485 19.333 -148.672 -62.6098 168.278 -25.3631 20.5068 70.0965 3.18055e-015 1.98785e-016 -5.66536e-015 3.64665e-032 8.94531e-016 -2.33572e-015 3.18055e-015 2.18663e-015 -2.13694e-015 3.18055e-015 1.98785e-016 -5.66536e-015 -0.0128071 0.00233758 9.01224e-005 -1.22618e-006 -2.91059e-006 9.50032e-006 3.18055e-015 1.98785e-016 -5.66536e-015 -0.0160552 0.00300442 0.000861918 -1.27222e-014 -3.47873e-015 2.98177e-015 3.18055e-015 1.98785e-016 -5.66536e-015 -0.0125787 0.00311347 0.00283315 4.26735e-032 -1.49089e-015 1.63997e-015 3.18055e-015 1.98785e-016 -5.66536e-015 3.64665e-032 8.94531e-016 -2.33572e-015 3.18055e-015 2.18663e-015 -2.13694e-015 -16.3655 -7.16894 -37.0363 -29.1166 -39.1248 -4.50573 145.552 -42.192 130.12 -35.0991 24.55 -21.9509 7.95139e-016 -3.18055e-015 -1.39149e-015 2.38542e-015 -3.18055e-015 -2.5842e-015 7.95139e-016 -3.18055e-015 -2.5842e-015 7.95139e-016 -3.18055e-015 -1.39149e-015 0.0129508 0.0023164 -8.94852e-005 -1.59028e-015 6.36111e-015 -5.96354e-016 7.95139e-016 -3.18055e-015 -1.39149e-015 0.0163165 0.00303589 -0.000869364 7.95139e-016 6.36111e-015 3.97569e-016 7.95139e-016 -3.18055e-015 -1.39149e-015 0.0145764 0.00368405 -0.00326657 -7.68848e-007 5.35483e-007 5.05094e-006 7.95139e-016 -3.18055e-015 -1.39149e-015 2.38542e-015 -3.18055e-015 -2.5842e-015 7.95139e-016 -3.18055e-015 -2.5842e-015 -2.45817 1.73418 -4.79404 -169.53 64.9541 165.728 -6.11401 11.7815 -0.0544891 4.65721e-007 8.34699e-009 9.58478e-008 5.06714 -2.18874 2.61696 47.6403 85.5538 -46.647 10.4131 36.7968 1.57636 8.82781e-032 -6.36111e-015 7.95139e-016 
-0.381799 -4.74946 56.9399 -90.3963 -89.7304 89.3514 0.167012 -4.64289 0.0469134 0.339534 -9.28563 0.107993 0.339534 -9.28566 0.107993 1.82613e-008 6.34653 -9.78741e-008 5.8583e-009 14.8406 1.58482e-007 9.88493 -41.9009 4.90484 38.2811 -30.4485 19.333 -148.672 -62.6098 168.278 -25.1396 20.5856 70.4454 -3.18055e-015 1.98785e-016 4.5472e-015 6.02154e-006 3.67841e-006 -2.60382e-007 9.54166e-015 -9.93923e-016 7.65321e-015 -3.18055e-015 1.98785e-016 4.5472e-015 -0.0127929 0.00231215 7.28587e-005 4.41735e-031 -1.21259e-014 2.08724e-015 -3.18055e-015 1.98785e-016 4.5472e-015 -0.0160598 0.00299987 0.000853734 6.36111e-015 -4.77083e-015 -1.74185e-014 -3.18055e-015 1.98785e-016 4.5472e-015 -0.0125919 0.0031336 0.00283423 -3.18055e-015 0 3.05631e-015 -3.18055e-015 1.98785e-016 4.5472e-015 6.02154e-006 3.67841e-006 -2.60382e-007 9.54166e-015 -9.93923e-016 7.65321e-015 -16.7339 -8.13856 -37.2995 -29.1166 -39.1248 -4.50573 145.552 -42.192 130.12 -35.2249 24.7955 -22.1519 -7.95139e-016 6.36111e-015 2.38542e-015 -1.92788e-006 1.87922e-007 -5.02478e-006 2.86904e-031 6.36111e-015 -2.5842e-015 -7.95139e-016 6.36111e-015 2.38542e-015 0.0129743 0.00231672 -9.21429e-005 7.95139e-016 -3.18055e-015 3.77691e-015 -7.95139e-016 6.36111e-015 2.38542e-015 0.0163039 0.00303175 -0.000877355 7.95139e-016 -6.36111e-015 1.78906e-015 -7.95139e-016 6.36111e-015 2.38542e-015 0.0145703 0.00368314 -0.00326885 1.59028e-015 -3.18055e-015 3.77691e-015 -7.95139e-016 6.36111e-015 2.38542e-015 -1.92788e-006 1.87922e-007 -5.02478e-006 2.86904e-031 6.36111e-015 -2.5842e-015 -2.45817 1.73418 -4.79404 -169.53 64.9541 165.728 -6.11401 11.7815 -0.0544891 -1.98385e-007 -1.19035e-008 9.30471e-007 5.06714 -2.1887 2.61697 47.6399 85.5538 -46.6466 10.4131 36.7968 1.57636 -8.86895e-007 -9.92182e-007 -6.07831e-006 
